<svg width="16" height="16" fill="none" xmlns="http://www.w3.org/2000/svg"><path fill-rule="evenodd" clip-rule="evenodd" d="M1.33325 1.99992c0-.36819.29848-.66667.66667-.66667h4.66667c.36819 0 .66666.29848.66666.66667v4.66667c0 .36819-.29847.66666-.66666.66666H1.99992c-.36819 0-.66667-.29847-.66667-.66666V1.99992Zm1.33334.66667v3.33333h3.33333V2.66659H2.66659ZM8.66675 1.99992c0-.36819.29847-.66667.66666-.66667h4.66669c.3682 0 .6666.29848.6666.66667v4.66667c0 .36819-.2984.66666-.6666.66666H9.33341c-.36819 0-.66666-.29847-.66666-.66666V1.99992Zm1.33335.66667v3.33333h3.3333V2.66659h-3.3333ZM8.66675 9.33341c0-.36819.29847-.66666.66666-.66666h4.66669c.3682 0 .6666.29847.6666.66666v4.66669c0 .3682-.2984.6666-.6666.6666H9.33341c-.36819 0-.66666-.2984-.66666-.6666V9.33341Zm1.33335.66669v3.3333h3.3333v-3.3333h-3.3333ZM1.33325 9.33341c0-.36819.29848-.66666.66667-.66666h4.66667c.36819 0 .66666.29847.66666.66666v4.66669c0 .3682-.29847.6666-.66666.6666H1.99992c-.36819 0-.66667-.2984-.66667-.6666V9.33341Zm1.33334.66669v3.3333h3.33333v-3.3333H2.66659Z" fill="#fff"/></svg>