<svg width="32" height="31" fill="none" xmlns="http://www.w3.org/2000/svg"><g clip-path="url(#a)" fill-rule="evenodd" clip-rule="evenodd" fill="#2F294D"><path d="M7 28c0-1.1046.89543-2 2-2 1.1046 0 2 .8954 2 2s-.8954 2-2 2c-1.10457 0-2-.8954-2-2ZM18 28c0-1.1046.8954-2 2-2s2 .8954 2 2-.8954 2-2 2-2-.8954-2-2ZM0 8c0-.55228.447715-1 1-1h4c.47663 0 .88701.33639.98055.80374L6.82043 12H23c.298 0 .5805.1329.7705.3626.19.2296.2676.532.2118.8247l-1.6014 8.3975c-.1372.6906-.5129 1.311-1.0614 1.7525-.5457.4393-1.2279.6737-1.9281.6627H9.68864c-.70027.011-1.38244-.2234-1.92816-.6627-.54823-.4414-.92384-1.0614-1.06115-1.7516-.00006-.0003.00006.0002 0 0l-1.67054-8.3465c-.00678-.0276-.01241-.0557-.01684-.0841L4.18032 9H1c-.552285 0-1-.44772-1-1Zm7.22073 6 1.44011 7.1952c.04572.2302.17095.437.35377.5841.18282.1472.41158.2254.64623.2209L9.68 22h9.72l.0192.0002c.2346.0045.4634-.0737.6462-.2209.182-.1465.3069-.352.3531-.5809L21.7913 14H7.22073Z"/></g><circle cx="23.5" cy="8.5" r="7.5" fill="#0064D2" stroke="#fff" stroke-width="2"/><path d="M23.53 12c-.132 0-.242-.044-.33-.132-.088-.088-.132-.1943-.132-.319V5.29l.132.154-1.243.858c-.0733.05133-.1577.077-.253.077-.1247 0-.231-.044-.319-.132-.088-.09533-.132-.20167-.132-.319 0-.16133.077-.28967.231-.385l1.749-1.155c.0587-.03667.1173-.06233.176-.077.0587-.01467.1173-.01833.176-.011.132 0 .2347.044.308.132.0807.08067.121.18333.121.308v6.809c0 .1247-.0477.231-.143.319-.088.088-.2017.132-.341.132Z" fill="#fff"/><defs><clipPath id="a"><path fill="#fff" transform="translate(0 7)" d="M0 0h24v24H0z"/></clipPath></defs></svg>