<svg width="40" height="40" fill="none" xmlns="http://www.w3.org/2000/svg"><circle cx="20" cy="20" r="20" fill="#0064D2" opacity=".1"/><path fill-rule="evenodd" clip-rule="evenodd" d="M28 20c0 .5523-.4477 1-1 1H13c-.5523 0-1-.4477-1-1s.4477-1 1-1h14c.5523 0 1 .4477 1 1Z" fill="#0064D2"/><path fill-rule="evenodd" clip-rule="evenodd" d="M20.7071 27.7071c-.3905.3905-1.0237.3905-1.4142 0l-7-7c-.3905-.3905-.3905-1.0237 0-1.4142l7-7c.3905-.3905 1.0237-.3905 1.4142 0 .3905.3905.3905 1.0237 0 1.4142L14.4142 20l6.2929 6.2929c.3905.3905.3905 1.0237 0 1.4142Z" fill="#0064D2"/></svg>