<svg width="203" height="18" fill="none" xmlns="http://www.w3.org/2000/svg"><path d="M6.352 1.77128c1.07733 0 2.03733.24533 2.88.736.8427.48 1.4933 1.152 1.952 2.016.4693.85333.704 1.82933.704 2.928 0 1.09866-.2347 2.08-.704 2.94402-.4587.8533-1.1093 1.5253-1.952 2.016-.84267.48-1.80267.72-2.88.72-1.088 0-2.05333-.24-2.896-.72-.84267-.4907-1.49867-1.1627-1.968-2.016-.46933-.86402-.704-1.84536-.704-2.94402 0-1.09867.23467-2.07467.704-2.928.46933-.864 1.12533-1.536 1.968-2.016.84267-.49067 1.808-.736 2.896-.736Zm0 .64c-.992 0-1.856.21333-2.592.64-.736.416-1.30133 1.00266-1.696 1.76-.39467.75733-.592 1.63733-.592 2.64 0 .992.19733 1.872.592 2.64002.39467.7573.96 1.3493 1.696 1.776.736.4266 1.6.64 2.592.64.98133 0 1.83467-.2134 2.56-.64.736-.4267 1.3013-1.0187 1.696-1.776.3947-.76802.592-1.64802.592-2.64002 0-1.00267-.1973-1.88267-.592-2.64-.3947-.75734-.96-1.344-1.696-1.76-.72533-.42667-1.57867-.64-2.56-.64Zm-.032 1.328c-.64 0-1.22667.14933-1.76.448-.52267.29866-.93867.73066-1.248 1.296-.30933.55466-.464 1.20533-.464 1.952 0 .74666.15467 1.40266.464 1.968.30933.55466.72533.98662 1.248 1.29602.53333.2986 1.12.448 1.76.448.8 0 1.49333-.2134 2.08-.64.58667-.4374.98667-1.01869 1.2-1.74402H8.256c-.32.88533-.96533 1.32802-1.936 1.32802-.64 0-1.16267-.22936-1.568-.68802-.40533-.45867-.608-1.10934-.608-1.952 0-.85334.20267-1.50934.608-1.968.40533-.45867.928-.688 1.568-.688.46933 0 .87467.11733 1.216.352.34133.224.58133.54933.72.976H9.6c-.20267-.75734-.59733-1.344-1.184-1.76-.58667-.416-1.28533-.624-2.096-.624Zm11.4335 8.12802c1.3547-1.088 2.416-1.97869 3.184-2.67202.768-.704 1.4133-1.43467 1.936-2.192.5333-.768.8-1.52.8-2.256 0-.69334-.1707-1.23734-.512-1.632-.3307-.40534-.8693-.608-1.616-.608-.7253 0-1.2907.22933-1.696.688-.3947.448-.608 1.05066-.64 1.808h-1.408c.0427-1.19467.4053-2.11734 1.088-2.768.6827-.65067 1.5627-.976 2.64-.976 1.0987 0 1.968.304 2.608.912.6507.608.976 1.44533.976 2.512 0 .88533-.2667 1.74933-.8 2.592-.5227.832-1.12 1.568-1.792 2.208-.672.62932-1.5307 1.36532-2.576 2.20802h5.504v1.216h-7.696v-1.04Zm9.3791-4.73602c0-1.83467.2987-3.264.896-4.288.5974-1.03467 1.6427-1.552 3.136-1.552 1.4827 0 2.5227.51733 3.12 1.552.5974 1.024.896 2.45333.896 4.288 0 1.86666-.2986 3.31732-.896 4.35202-.5973 1.0346-1.6373 1.552-3.12 1.552-1.4933 0-2.5386-.5174-3.136-1.552-.5973-1.0347-.896-2.48536-.896-4.35202Zm6.608 0c0-.928-.064-1.712-.192-2.352-.1173-.65067-.368-1.17334-.752-1.568-.3733-.39467-.9173-.592-1.632-.592-.7253 0-1.28.19733-1.664.592-.3733.39466-.624.91733-.752 1.568-.1173.64-.176 1.424-.176 2.352 0 .96.0587 1.76533.176 2.416.128.65062.3787 1.17332.752 1.56802.384.3946.9387.592 1.664.592.7147 0 1.2587-.1974 1.632-.592.384-.3947.6347-.9174.752-1.56802.128-.65067.192-1.456.192-2.416Zm3.2629 4.73602c1.3547-1.088 2.416-1.97869 3.184-2.67202.768-.704 1.4133-1.43467 1.936-2.192.5333-.768.8-1.52.8-2.256 0-.69334-.1707-1.23734-.512-1.632-.3307-.40534-.8693-.608-1.616-.608-.7253 0-1.2907.22933-1.696.688-.3947.448-.608 1.05066-.64 1.808h-1.408c.0427-1.19467.4053-2.11734 1.088-2.768.6827-.65067 1.5627-.976 2.64-.976 1.0987 0 1.968.304 2.608.912.6507.608.976 1.44533.976 2.512 0 .88533-.2667 1.74933-.8 2.592-.5227.832-1.12 1.568-1.792 2.208-.672.62932-1.5307 1.36532-2.576 2.20802h5.504v1.216h-7.696v-1.04Zm9.2031 0c1.3547-1.088 2.416-1.97869 3.184-2.67202.768-.704 1.4134-1.43467 1.936-2.192.5334-.768.8-1.52.8-2.256 0-.69334-.1706-1.23734-.512-1.632-.3306-.40534-.8693-.608-1.616-.608-.7253 0-1.2906.22933-1.696.688-.3946.448-.608 1.05066-.64 1.808h-1.408c.0427-1.19467.4054-2.11734 1.088-2.768.6827-.65067 1.5627-.976 2.64-.976 1.0987 0 1.968.304 2.608.912.6507.608.976 1.44533.976 2.512 0 .88533-.2666 1.74933-.8 2.592-.5226.832-1.12 1.568-1.792 2.208-.672.62932-1.5306 1.36532-2.576 2.20802h5.504v1.216h-7.696v-1.04Zm11.1232-.848-1.792 4.304h-.9761l1.1681-4.304h1.6Zm12.5255-.464h-4.864l-.896 2.48h-1.5361l4.0321-11.08802h1.68l4.016 11.08802h-1.536l-.896-2.48Zm-.416-1.18402-2.016-5.632-2.016 5.632h4.032Zm6.0612-8.176V13.0353h-1.456V1.19528h1.456Zm3.9375 0V13.0353h-1.456V1.19528h1.456Zm8.2031 4.496c.256-.50134.6187-.89067 1.088-1.168.48-.27734 1.0614-.416 1.744-.416v1.504h-.384c-1.632 0-2.448.88533-2.448 2.656v4.76802h-1.456V4.26728h1.456v1.424Zm5.2648-2.848c-.2774 0-.512-.096-.704-.288-.192-.192-.288-.42667-.288-.704 0-.27734.096-.512.288-.704.192-.192002.4266-.288002.704-.288002.2666 0 .4906.096.672.288002.192.192.288.42666.288.704 0 .27733-.096.512-.288.704-.1814.192-.4054.288-.672.288Zm.704 1.424v8.76802h-1.456V4.26728h1.456Zm6.0975-.144c.7576 0 1.4186.16533 1.9836.496.576.33066 1.003.74666 1.28 1.248v-1.6h1.472v8.96002c0 .8-.17 1.5093-.512 2.128-.341.6293-.832 1.12-1.472 1.472-.629.352-1.365.528-2.208.528-1.1516 0-2.1116-.272-2.8796-.816-.768-.544-1.2214-1.2854-1.36-2.224h1.44c.16.5333.4906.96.992 1.28.5013.3306 1.104.496 1.8076.496.8 0 1.451-.2507 1.952-.752.512-.5014.768-1.2054.768-2.112v-1.84c-.288.512-.714.9386-1.28 1.28-.565.3413-1.226.512-1.9836.512-.7787 0-1.488-.192-2.128-.576-.6294-.384-1.1254-.9227-1.488-1.616-.3627-.6934-.544-1.48269-.544-2.36802 0-.896.1813-1.68.544-2.352.3626-.68267.8586-1.21067 1.488-1.584.64-.37334 1.3493-.56 2.128-.56Zm3.2636 4.512c0-.66134-.133-1.23734-.4-1.728-.266-.49067-.629-.864-1.088-1.12-.448-.26667-.944-.4-1.4876-.4-.544 0-1.04.128-1.488.384-.448.256-.8054.62933-1.072 1.12-.2667.49066-.4 1.06666-.4 1.728 0 .672.1333 1.25866.4 1.76002.2666.4906.624.8693 1.072 1.136.448.256.944.384 1.488.384.5436 0 1.0396-.128 1.4876-.384.459-.2667.822-.6454 1.088-1.136.267-.50136.4-1.08269.4-1.74402Zm8.285-4.528c.661 0 1.259.144 1.792.432.533.27733.949.69866 1.248 1.264.309.56533.464 1.25333.464 2.064v5.16802h-1.44V8.07528c0-.87467-.219-1.54134-.656-2-.437-.46934-1.035-.704-1.792-.704-.768 0-1.381.24-1.84.72-.448.48-.672 1.17866-.672 2.096v4.84802h-1.456V1.19528h1.456v4.32c.288-.448.683-.79467 1.184-1.04.512-.24534 1.083-.368 1.712-.368Zm7.658 1.36v5.16802c0 .4266.091.7306.272.912.182.1706.496.256.944.256h1.072v1.232h-1.312c-.81 0-1.418-.1867-1.824-.56-.405-.3734-.608-.9867-.608-1.84V5.46728h-1.136v-1.2h1.136v-2.208h1.456v2.208h2.288v1.2h-2.288Zm7.156 7.71202c-.672 0-1.274-.112-1.808-.336-.533-.2347-.954-.5547-1.264-.96-.309-.416-.48-.8907-.512-1.424h1.504c.043.4373.246.7946.608 1.072.374.2773.859.416 1.456.416.555 0 .992-.1227 1.312-.368.32-.2454.48-.5547.48-.928 0-.384-.17-.66669-.512-.84802-.341-.192-.869-.37867-1.584-.56-.65-.17067-1.184-.34134-1.6-.512-.405-.18134-.757-.44267-1.056-.784-.288-.352-.432-.81067-.432-1.376 0-.448.134-.85867.4-1.232.267-.37334.646-.66667 1.136-.88.491-.224 1.051-.336 1.68-.336.971 0 1.755.24533 2.352.736.598.49066.918 1.16266.96 2.016h-1.456c-.032-.45867-.218-.82667-.56-1.104-.33-.27734-.778-.416-1.344-.416-.522 0-.938.112-1.248.336-.309.224-.464.51733-.464.88 0 .288.091.528.272.72.192.18133.427.33066.704.448.288.10666.683.22933 1.184.368.63.17066 1.142.34133 1.536.512.395.16.731.40533 1.008.736.288.33066.438.76262.448 1.29602 0 .48-.133.912-.4 1.296-.266.384-.645.688-1.136.912-.48.2133-1.034.32-1.664.32Zm10.977-7.48802c.256-.50134.619-.89067 1.088-1.168.48-.27734 1.062-.416 1.744-.416v1.504h-.384c-1.632 0-2.448.88533-2.448 2.656v4.76802h-1.456V4.26728h1.456v1.424Zm12.513 2.624c0 .27733-.016.57066-.048.88h-7.008c.053.86402.347 1.54132.88 2.03202.544.48 1.2.72 1.968.72.629 0 1.152-.144 1.568-.432.427-.2987.725-.6934.896-1.184h1.568c-.235.8426-.704 1.5306-1.408 2.064-.704.5226-1.579.784-2.624.784-.832 0-1.579-.1867-2.24-.56-.651-.3734-1.163-.9014-1.536-1.584-.373-.6934-.56-1.49336-.56-2.40002 0-.90667.181-1.70134.544-2.384.363-.68267.869-1.20534 1.52-1.568.661-.37334 1.419-.56 2.272-.56.832 0 1.568.18133 2.208.544.64.36266 1.131.864 1.472 1.504.352.62933.528 1.344.528 2.144Zm-1.504-.304c0-.55467-.123-1.02934-.368-1.424-.245-.40534-.581-.70934-1.008-.912-.416-.21334-.88-.32-1.392-.32-.736 0-1.365.23466-1.888.704-.512.46933-.805 1.12-.88 1.952h5.536Zm6.53 5.16802c-.672 0-1.275-.112-1.808-.336-.533-.2347-.955-.5547-1.264-.96-.309-.416-.48-.8907-.512-1.424h1.504c.043.4373.245.7946.608 1.072.373.2773.859.416 1.456.416.555 0 .992-.1227 1.312-.368.32-.2454.48-.5547.48-.928 0-.384-.171-.66669-.512-.84802-.341-.192-.869-.37867-1.584-.56-.651-.17067-1.184-.34134-1.6-.512-.405-.18134-.757-.44267-1.056-.784-.288-.352-.432-.81067-.432-1.376 0-.448.133-.85867.4-1.232.267-.37334.645-.66667 1.136-.88.491-.224 1.051-.336 1.68-.336.971 0 1.755.24533 2.352.736.597.49066.917 1.16266.96 2.016h-1.456c-.032-.45867-.219-.82667-.56-1.104-.331-.27734-.779-.416-1.344-.416-.523 0-.939.112-1.248.336-.309.224-.464.51733-.464.88 0 .288.091.528.272.72.192.18133.427.33066.704.448.288.10666.683.22933 1.184.368.629.17066 1.141.34133 1.536.512.395.16.731.40533 1.008.736.288.33066.437.76262.448 1.29602 0 .48-.133.912-.4 1.296s-.645.688-1.136.912c-.48.2133-1.035.32-1.664.32Zm13.255-4.86402c0 .27733-.016.57066-.048.88h-7.008c.054.86402.347 1.54132.88 2.03202.544.48 1.2.72 1.968.72.63 0 1.152-.144 1.568-.432.427-.2987.726-.6934.896-1.184h1.568c-.234.8426-.704 1.5306-1.408 2.064-.704.5226-1.578.784-2.624.784-.832 0-1.578-.1867-2.24-.56-.65-.3734-1.162-.9014-1.536-1.584-.373-.6934-.56-1.49336-.56-2.40002 0-.90667.182-1.70134.544-2.384.363-.68267.87-1.20534 1.52-1.568.662-.37334 1.419-.56 2.272-.56.832 0 1.568.18133 2.208.544.64.36266 1.131.864 1.472 1.504.352.62933.528 1.344.528 2.144Zm-1.504-.304c0-.55467-.122-1.02934-.368-1.424-.245-.40534-.581-.70934-1.008-.912-.416-.21334-.88-.32-1.392-.32-.736 0-1.365.23466-1.888.704-.512.46933-.805 1.12-.88 1.952h5.536Zm4.882-2.32c.256-.50134.619-.89067 1.088-1.168.48-.27734 1.062-.416 1.744-.416v1.504h-.384c-1.632 0-2.448.88533-2.448 2.656v4.76802h-1.456V4.26728h1.456v1.424Zm7.777 6.00002 2.72-7.42402h1.552l-3.44 8.76802h-1.696l-3.44-8.76802h1.568l2.736 7.42402Zm13.705-3.37602c0 .27733-.016.57066-.048.88h-7.008c.053.86402.346 1.54132.88 2.03202.544.48 1.2.72 1.968.72.629 0 1.152-.144 1.568-.432.426-.2987.725-.6934.896-1.184h1.568c-.235.8426-.704 1.5306-1.408 2.064-.704.5226-1.579.784-2.624.784-.832 0-1.579-.1867-2.24-.56-.651-.3734-1.163-.9014-1.536-1.584-.374-.6934-.56-1.49336-.56-2.40002 0-.90667.181-1.70134.544-2.384.362-.68267.869-1.20534 1.52-1.568.661-.37334 1.418-.56 2.272-.56.832 0 1.568.18133 2.208.544.64.36266 1.13.864 1.472 1.504.352.62933.528 1.344.528 2.144Zm-1.504-.304c0-.55467-.123-1.02934-.368-1.424-.246-.40534-.582-.70934-1.008-.912-.416-.21334-.88-.32-1.392-.32-.736 0-1.366.23466-1.888.704-.512.46933-.806 1.12-.88 1.952h5.536Zm2.882.608c0-.896.181-1.68.544-2.352.362-.68267.858-1.21067 1.488-1.584.64-.37334 1.354-.56 2.144-.56.682 0 1.317.16 1.904.48.586.30933 1.034.72 1.344 1.232v-4.64h1.472V13.0353h-1.472v-1.648c-.288.5226-.715.9546-1.28 1.296-.566.3306-1.227.496-1.984.496-.779 0-1.488-.192-2.128-.576-.63-.384-1.126-.9227-1.488-1.616-.363-.6934-.544-1.48269-.544-2.36802Zm7.424.016c0-.66134-.134-1.23734-.4-1.728-.267-.49067-.63-.864-1.088-1.12-.448-.26667-.944-.4-1.488-.4s-1.04.128-1.488.384c-.448.256-.806.62933-1.072 1.12-.267.49066-.4 1.06666-.4 1.728 0 .672.133 1.25866.4 1.76002.266.4906.624.8693 1.072 1.136.448.256.944.384 1.488.384s1.04-.128 1.488-.384c.458-.2667.821-.6454 1.088-1.136.266-.50136.4-1.08269.4-1.74402Z" fill="#253D4E"/></svg>