<svg width="121" height="49" fill="none" xmlns="http://www.w3.org/2000/svg"><g clip-path="url(#a)"><path d="M15.6763 10.6111c-8.52875 0-15.6357727 3.6183-15.6357727 14.5347C.0405273 33.7939 4.81949 39.24 15.8966 39.24c13.0382 0 13.874-8.5887 13.874-8.5887h-6.3177s-1.3545 4.6247-7.9417 4.6247c-5.3652 0-9.22395-3.6243-9.22395-8.7043H30.4312V23.384c0-5.0257-3.1904-12.7729-14.7549-12.7729Zm-.2202 4.0741c5.107 0 8.5887 3.1287 8.5887 7.8179H6.42698c0-4.9782 4.54442-7.8179 9.02912-7.8179Z" fill="#E53238"/><path d="M30.4266.0402832V33.7577c0 1.914-.1366 4.6013-.1366 4.6013h6.0257s.2163-1.9301.2163-3.694c0 0 2.9771 4.6575 11.072 4.6575 8.5243 0 14.3145-5.9181 14.3145-14.3971 0-7.8878-5.3185-14.2318-14.3007-14.2318-8.4112 0-11.0249 4.542-11.0249 4.542V.0402832h-6.1663ZM46.0624 14.864c5.7887 0 9.4696 4.2962 9.4696 10.0614 0 6.1822-4.2513 10.2266-9.4283 10.2266-6.1782 0-9.5108-4.8239-9.5108-10.1715 0-4.9829 2.9905-10.1165 9.4695-10.1165Z" fill="#0064D2"/><path d="M76.8936 10.6111c-12.8309 0-13.6538 7.0256-13.6538 8.1482h6.3865s.3349-4.1016 6.8269-4.1016c4.2186 0 7.4876 1.9309 7.4876 5.6432v1.3213h-7.4876c-9.9403 0-15.1954 2.9079-15.1954 8.8089 0 5.8074 4.8555 8.9672 11.4172 8.9672 8.9425 0 11.8232-4.9412 11.8232-4.9412 0 1.9653.1515 3.902.1515 3.902h5.6775s-.2202-2.4006-.2202-3.9365V21.1474c0-8.7045-7.0211-10.5363-13.2134-10.5363Zm7.0472 14.9751v1.7618c0 2.2978-1.418 8.0106-9.7656 8.0106-4.5711 0-6.5309-2.2813-6.5309-4.9275 0-4.8139 6.6-4.8449 16.2965-4.8449Z" fill="#F5AF02"/><path d="M86.668 11.7134h7.1847L104.164 32.371l10.287-20.6576h6.509l-18.739 36.7771h-6.8267l5.4077-10.2521-14.134-26.525Z" fill="#86B817"/></g><defs><clipPath id="a"><path fill="#fff" d="M0 0h121v48.5307H0z"/></clipPath></defs></svg>