<svg width="28" height="30" fill="none" xmlns="http://www.w3.org/2000/svg"><path fill-rule="evenodd" clip-rule="evenodd" d="M4.95051 8.481c.77793-.32302 1.61198-.4893 2.45431-.4893s1.67637.16628 2.4543.4893c.77798.32302 1.48448.79643 2.07908 1.39308l.0033.00334.0583.05911.0584-.0591.0033-.00335c.5946-.59665 1.3011-1.07006 2.079-1.39308.7779-.32302 1.612-.4893 2.4543-.4893.8423 0 1.6764.16628 2.4543.4893.7777.32291 1.484.7961 2.0784 1.39246 2.5451 2.54574 2.6016 6.75484-.414 9.82704l-.0065.0066-8.0001 8c-.1875.1875-.4419.2929-.7071.2929-.2652 0-.5196-.1054-.7071-.2929l-8.00655-8.0066C.270454 16.6283.327075 12.4191 2.8721 9.87346 3.46656 9.2771 4.17285 8.80391 4.95051 8.481Zm2.45431 1.5107c-.5791 0-1.15251.1143-1.68734.3364-.53482.2221-1.02055.5475-1.42933.9577l-.00122.0013c-1.69362 1.6936-1.89736 4.6421.4234 7.0092l7.28947 7.2894 7.2895-7.2894c2.3208-2.3671 2.117-5.3156.4234-7.0092l-.0012-.0013c-.4088-.4102-.8945-.7356-1.4293-.9577-.5349-.2221-1.1083-.3364-1.6874-.3364s-1.1525.1143-1.6873.3364c-.5341.2218-1.0193.5467-1.4277.9561l-.0016.0016-.7667.7767c-.1879.1903-.4442.2975-.7117.2975-.2674 0-.5237-.1072-.7116-.2975l-.7667-.7767c-.0006-.0005-.0011-.001-.0016-.0016-.4085-.4094-.89362-.7343-1.42775-.9561-.53482-.2221-1.10823-.3364-1.68733-.3364Z" fill="#2F294D"/><circle cx="19.5" cy="8.5" r="7.5" fill="#0064D2" stroke="#fff" stroke-width="2"/><path d="M20.125 12c-.1247 0-.231-.044-.319-.132-.0807-.088-.121-.1943-.121-.319V5.532l.176.066-2.629 3.432-.044-.132h4.114c.1173 0 .2163.04033.297.121.0807.08067.121.17967.121.297 0 .11-.0403.20533-.121.286-.0807.07333-.1797.11-.297.11h-4.719c-.11 0-.2127-.044-.308-.132-.088-.088-.132-.19067-.132-.308 0-.11.0367-.20533.11-.286l3.509-4.51c.0513-.066.11-.11.176-.132.066-.02933.132-.044.198-.044.1247 0 .2273.044.308.132.0807.08067.121.18333.121.308v6.809c0 .1247-.044.231-.132.319-.0807.088-.1833.132-.308.132Z" fill="#fff"/></svg>