<svg width="26" height="24" fill="none" xmlns="http://www.w3.org/2000/svg"><path d="M11.1631 1.26548c.6942-1.611926 2.9796-1.611922 3.6738 0l2.0195 4.68943c.2895.67235.9233 1.13279 1.6522 1.2004l5.0839.47152c1.7476.16208 2.4538 2.3357 1.1353 3.49397l-3.8358 3.3698c-.55.4831-.7921 1.2281-.6311 1.9423l1.1226 4.9808c.3858 1.7121-1.4632 3.0555-2.9722 2.1594l-4.3902-2.6068c-.6294-.3737-1.4128-.3737-2.0422 0l-4.39018 2.6068c-1.50906.8961-3.35806-.4473-2.97218-2.1594l1.12258-4.9808c.16095-.7142-.08112-1.4592-.63109-1.9423l-3.83586-3.3698C-.0463493 9.96253.659906 7.78891 2.40745 7.62683l5.08396-.47152c.72892-.06761 1.36266-.52805 1.65221-1.2004l2.01948-4.68943Z" fill="#F2C94C"/></svg>